<svg width="444" height="360" viewBox="0 0 444 360" fill="none" xmlns="http://www.w3.org/2000/svg">
	<path d="M174.076 199.85C175.691 171.042 189.798 145.662 211.08 127.671C231.951 109.999 260.042 99.1984 290.693 99.1984C321.314 99.1984 349.405 109.999 370.291 127.671C391.558 145.662 405.665 171.042 407.295 199.819C408.91 229.419 397.012 256.916 376.141 277.3C354.859 298.033 324.589 311.043 290.693 311.043C256.797 311.043 226.466 298.033 205.2 277.3C184.314 256.916 172.446 229.419 174.076 199.85Z" fill="white"/>
	<path d="M231.04 202.423C231.869 187.642 239.107 174.619 250.027 165.387C260.736 156.32 275.15 150.778 290.877 150.778C306.589 150.778 321.003 156.32 331.719 165.387C342.632 174.619 349.87 187.641 350.706 202.407C351.535 217.595 345.43 231.704 334.721 242.163C323.801 252.801 308.269 259.477 290.877 259.477C273.485 259.477 257.922 252.801 247.01 242.163C236.293 231.704 230.204 217.595 231.04 202.423Z" fill="#265787"/>
	<path d="M135.74 232.283C135.842 238.067 137.686 249.308 140.453 258.086C146.269 276.666 156.134 293.855 169.86 309.004C183.946 324.574 201.291 337.081 221.325 345.961C242.383 355.286 265.2 360.039 288.9 360C312.562 359.968 335.379 355.122 356.437 345.726C376.471 336.761 393.8 324.199 407.863 308.621C421.581 293.409 431.43 276.189 437.261 257.609C440.193 248.221 442.045 238.692 442.788 229.133C443.515 219.714 443.21 210.279 441.873 200.852C439.262 182.483 432.907 165.247 423.121 149.535C414.171 135.098 402.633 122.458 388.915 111.82L388.946 111.796L250.505 5.49694C250.38 5.40314 250.278 5.30168 250.145 5.2157C241.062 -1.75679 225.788 -1.73331 215.799 5.25482C205.7 12.3211 204.543 24.0069 213.532 31.378L213.493 31.4172L271.235 78.372L95.2417 78.5597H95.0072C80.4604 78.5753 66.4763 88.1194 63.7092 100.181C60.8639 112.468 70.7442 122.661 85.8695 122.716L85.8461 122.771L175.05 122.599L15.8709 244.782C15.6677 244.93 15.4488 245.087 15.2612 245.235C0.245318 256.733 -4.60874 275.853 4.84947 287.953C14.4484 300.257 34.8578 300.28 50.03 288.024L136.905 216.923C136.905 216.923 135.638 226.522 135.74 232.283ZM358.977 264.425C341.077 282.661 316.017 293.003 288.9 293.058C261.745 293.105 236.685 282.857 218.785 264.652C210.038 255.78 203.612 245.571 199.649 234.698C195.764 224.013 194.256 212.671 195.256 201.227C196.202 190.041 199.532 179.371 204.847 169.718C210.069 160.228 217.26 151.654 226.14 144.4C243.54 130.22 265.693 122.544 288.861 122.513C312.054 122.482 334.19 130.087 351.606 144.22C360.47 151.442 367.654 159.986 372.875 169.46C378.214 179.106 381.52 189.736 382.505 200.953C383.49 212.381 381.982 223.708 378.097 234.401C374.126 245.305 367.724 255.514 358.977 264.425Z" fill="#EA7600"/>
</svg>
