<svg width="452" height="360" viewBox="0 0 452 360" fill="none">
  <path
    d="M49.8362 47.0471C48.9838 22.5706 68.0541 0 93.8312 0H357.966C383.743 0 402.814 22.5706 401.961 47.0471C401.142 70.5591 402.206 101.016 409.871 125.85C417.56 150.761 430.527 166.506 451.765 168.529V191.471C430.527 193.494 417.56 209.239 409.871 234.15C402.206 258.984 401.142 289.441 401.961 312.954C402.814 337.429 383.743 360 357.966 360H93.8312C68.0541 360 48.9838 337.429 49.8371 312.954C50.655 289.441 49.5918 258.984 41.9259 234.15C34.2371 209.239 21.2382 193.494 0 191.471V168.529C21.2374 166.506 34.2371 150.761 41.9259 125.85C49.5918 101.016 50.655 70.5591 49.8362 47.0471V47.0471Z"
    fill="url(#bootstrap_paint0_linear)" />
  <path
    d="M235.679 275.697C277.412 275.697 302.56 255.264 302.56 221.561C302.56 196.084 284.616 177.641 257.973 174.721V173.659C277.548 170.475 292.909 152.297 292.909 131.996C292.909 103.069 270.071 84.2268 235.271 84.2268H156.971V275.697H235.679ZM187.421 108.509H227.931C249.953 108.509 262.459 118.328 262.459 136.108C262.459 155.083 247.914 165.698 221.542 165.698H187.421V108.509V108.509ZM187.421 251.416V188.389H227.659C256.477 188.389 271.43 199.003 271.43 219.703C271.43 240.402 256.886 251.416 229.426 251.416H187.421V251.416Z"
    fill="url(#bootstrap_paint1_linear)" />
  <path
    d="M235.679 275.697C277.412 275.697 302.56 255.264 302.56 221.561C302.56 196.084 284.616 177.641 257.973 174.721V173.659C277.548 170.475 292.909 152.297 292.909 131.996C292.909 103.069 270.071 84.2268 235.271 84.2268H156.971V275.697H235.679ZM187.421 108.509H227.931C249.953 108.509 262.459 118.328 262.459 136.108C262.459 155.083 247.914 165.698 221.542 165.698H187.421V108.509V108.509ZM187.421 251.416V188.389H227.659C256.477 188.389 271.43 199.003 271.43 219.703C271.43 240.402 256.886 251.416 229.426 251.416H187.421V251.416Z"
    stroke="white" stroke-width="0.82183" />
  <defs>
    <filter id="filter0_d" x="143.411" y="73.9539" width="172.709" height="218.591"
      filterUnits="userSpaceOnUse" color-interpolation-filters="sRGB">
      <feFlood flood-opacity="0" result="BackgroundImageFix" />
      <feColorMatrix in="SourceAlpha" type="matrix"
        values="0 0 0 0 0 0 0 0 0 0 0 0 0 0 0 0 0 0 127 0" />
      <feOffset dy="3.28732" />
      <feGaussianBlur stdDeviation="6.57464" />
      <feColorMatrix type="matrix" values="0 0 0 0 0 0 0 0 0 0 0 0 0 0 0 0 0 0 0.15 0" />
      <feBlend mode="normal" in2="BackgroundImageFix" result="effect1_dropShadow" />
      <feBlend mode="normal" in="SourceGraphic" in2="effect1_dropShadow" result="shape" />
    </filter>
    <linearGradient id="bootstrap_paint0_linear" x1="67.1285" y1="9.52766" x2="461.894" y2="322.893"
      gradientUnits="userSpaceOnUse">
      <stop stop-color="#9013FE" />
      <stop offset="1" stop-color="#6610F2" />
    </linearGradient>
    <linearGradient id="bootstrap_paint1_linear" x1="170.742" y1="96.8294" x2="258.983" y2="246.064"
      gradientUnits="userSpaceOnUse">
      <stop stop-color="white" />
      <stop offset="1" stop-color="#F1E5FC" />
    </linearGradient>
  </defs>
</svg>