<svg width="286" height="320" fill="none" viewBox="0 0 286 320">
	<path fill="#FFDA00"
		d="M97.396 222.061a88.519 88.519 0 0 1-25.639-62.817 87.587 87.587 0 0 1 26.085-62.585A34.91 34.91 0 1 0 48.66 47.263a158.39 158.39 0 0 0-.678 223.981 34.914 34.914 0 0 0 38.866 9.176 34.917 34.917 0 0 0 19.542-19.45 34.899 34.899 0 0 0-.666-27.563 34.888 34.888 0 0 0-8.327-11.346Z" />
	<path fill="#67B3FF"
		d="M97.843 96.66a88.805 88.805 0 0 1 125.401.445 34.905 34.905 0 0 0 38.971 9.381 34.909 34.909 0 0 0 10.425-58.544A157.84 157.84 0 0 0 160.956.993 157.849 157.849 0 0 0 48.892 47.03a34.91 34.91 0 1 0 48.95 49.63Z" />
	<path fill="#EB5A68"
		d="M223.03 222.507a88.596 88.596 0 0 1-62.836 25.735 87.558 87.558 0 0 1-33.93-6.785 87.6 87.6 0 0 1-28.654-19.396 34.906 34.906 0 0 0-38.923-9.274A34.907 34.907 0 0 0 39.83 259.9a34.92 34.92 0 0 0 8.383 11.344 158.14 158.14 0 0 0 223.981.892 34.923 34.923 0 0 0 7.751-38.029 34.947 34.947 0 0 0-7.518-11.368 34.924 34.924 0 0 0-38.029-7.75 34.931 34.931 0 0 0-11.368 7.518Z" />
	<path fill="#47A1FF"
		d="M97.842 96.66a34.906 34.906 0 0 1-38.108 7.519 34.908 34.908 0 0 1 20.494-66.407 34.909 34.909 0 0 1 17.614 58.887Z" />
	<path fill="#D5465F"
		d="M97.164 271.244a34.909 34.909 0 1 1-49.319-49.418 34.909 34.909 0 0 1 49.319 49.418Z" />
</svg>