<svg width="318" height="360" viewBox="0 0 318 360" fill="none">
  <path d="M28.8281 323.438L0 0H317.109L288.281 323.438L158.203 360" fill="#0170BA" />
  <path d="M158.906 331.875L263.672 303.047L288.281 26.0156H158.906" fill="#29A9DF" />
  <path
    d="M158.906 249.609H158.203L113.906 237.656L111.094 206.016H71.7188L76.6406 268.594L158.203 291.094H158.906V249.609Z"
    fill="#EBEBEB" />
  <path
    d="M158.906 66.0938H59.0625L62.5164 105.469H158.906L66.0629 145.898L69.6094 186.328H158.906V66.0938Z"
    fill="#EBEBEB" />
  <path
    d="M158.203 186.328H207.422L202.5 237.656L158.203 249.609V291.094L239.766 268.594L251.016 146.25H162L254.531 105.469L258.047 66.0938H158.203V186.328Z"
    fill="white" />
</svg>