<svg width="360" height="352" viewBox="0 0 360 352" fill="none">
  <path
    d="M348.338 160.285L195.105 7.06049C186.282 -1.76626 171.971 -1.76626 163.14 7.06049L131.32 38.8803L171.684 79.2442C181.065 76.0741 191.821 78.2015 199.295 85.68C206.816 93.2004 208.924 104.052 205.674 113.466L244.579 152.364C253.993 149.121 264.845 151.218 272.365 158.746C282.869 169.249 282.869 186.269 272.365 196.78C261.854 207.287 244.834 207.287 234.319 196.78C226.421 188.87 224.465 177.263 228.472 167.527L192.187 131.246V226.721C194.746 227.989 197.164 229.677 199.295 231.808C209.799 242.308 209.799 259.327 199.295 269.846C188.792 280.346 171.761 280.346 161.265 269.846C150.761 259.327 150.761 242.308 161.265 231.808C163.862 229.211 166.868 227.252 170.076 225.938V129.581C166.868 128.267 163.87 126.323 161.265 123.71C153.309 115.758 151.395 104.082 155.478 94.3119L115.687 54.5133L10.6145 159.575C1.79158 168.409 1.79158 182.721 10.6145 191.547L163.855 344.776C172.677 353.599 186.985 353.599 195.819 344.776L348.338 192.262C357.164 183.431 357.164 169.112 348.338 160.285Z"
    fill="#F05133" />
</svg>