<svg width="360" height="352" viewBox="0 0 360 352" fill="none" xmlns="http://www.w3.org/2000/svg">
	<path fill-rule="evenodd" clip-rule="evenodd" d="M180.004 0C80.6017 0 0 80.5846 0 180.001C0 259.528 51.5788 327 123.102 350.801C132.095 352.467 135.4 346.896 135.4 342.142C135.4 337.85 135.228 323.67 135.149 308.629C85.0729 319.518 74.5067 287.392 74.5067 287.392C66.3228 266.589 54.5261 261.054 54.5261 261.054C38.194 249.882 55.7566 250.111 55.7566 250.111C73.827 251.381 83.3488 268.664 83.3488 268.664C99.4019 296.179 125.456 288.223 135.729 283.624C137.346 271.993 142.01 264.05 147.153 259.554C107.178 255.006 65.1495 239.569 65.1495 170.597C65.1495 150.948 72.1817 134.888 83.6921 122.283C81.825 117.748 75.6656 99.4412 85.4377 74.6469C85.4377 74.6469 100.554 69.8124 134.949 93.1008C149.307 89.1126 164.709 87.1124 180.004 87.0408C195.298 87.1124 210.715 89.1126 225.094 93.1008C259.454 69.8124 274.548 74.6469 274.548 74.6469C284.349 99.4412 278.182 117.748 276.315 122.283C287.854 134.888 294.836 150.948 294.836 170.597C294.836 239.736 252.729 254.955 212.646 259.411C219.106 264.997 224.858 275.952 224.858 292.745C224.858 316.83 224.65 336.213 224.65 342.142C224.65 346.932 227.884 352.545 237.012 350.777C308.493 326.949 360 259.504 360 180.001C360 80.5846 279.413 0 180.004 0ZM120.434 293.848C120.484 295.333 118.753 296.563 116.614 296.59C114.461 296.638 112.722 295.437 112.701 293.976C112.701 292.477 114.389 291.258 116.542 291.222C118.681 291.18 120.434 292.372 120.434 293.848ZM134.141 291.514C134.398 292.963 132.91 294.45 130.785 294.847C128.697 295.228 126.765 294.334 126.5 292.897C126.236 291.412 127.752 289.925 129.841 289.541C131.966 289.171 133.869 290.042 134.141 291.514ZM105.704 292.769C105.268 294.179 103.243 294.82 101.205 294.221C99.1729 293.604 97.8352 291.952 98.2501 290.527C98.6722 289.109 100.704 288.441 102.757 289.082C104.789 289.696 106.126 291.335 105.704 292.769ZM92.291 286.953C91.3038 288.042 89.2006 287.75 87.6625 286.265C86.0887 284.814 85.6523 282.753 86.6395 281.666C87.641 280.575 89.7514 280.882 91.3038 282.354C92.8633 283.803 93.3426 285.877 92.291 286.953ZM82.569 276.938C81.4602 277.707 79.6574 276.989 78.5486 275.388C77.4398 273.788 77.4397 271.865 78.57 271.096C79.686 270.327 81.4601 271.021 82.5904 272.607C83.6921 274.235 83.6922 276.154 82.569 276.938ZM75.4725 266.574C74.614 267.367 72.9328 266.997 71.7954 265.74C70.615 264.485 70.3933 262.807 71.266 261.999C72.1531 261.206 73.777 261.578 74.9574 262.833C76.1378 264.103 76.3667 265.766 75.4725 266.574ZM68.1756 258.44C67.7822 259.337 66.3728 259.605 65.0923 258.991C63.7903 258.401 63.0535 257.181 63.4755 256.284C63.869 255.367 65.2783 255.11 66.5803 255.724C67.8894 256.312 68.6335 257.543 68.1756 258.44Z" fill="#36395a"/>
</svg>
