<svg width="360" height="360" viewBox="0 0 360 360" fill="none" xmlns="http://www.w3.org/2000/svg">
	<path d="M325.461 148.968C342.77 148.136 358.091 161.564 359.586 178.888C366.06 262.697 289.359 356.582 181.273 359.584C90.1868 361.832 0.100464 288.909 0.100464 178.648C0.100464 161.271 14.4597 147.184 31.7885 147.184C49.1172 147.184 63.165 161.271 63.165 178.648C63.165 251.176 121.482 298.114 179.73 296.677C251.434 294.684 298.049 232.597 295.625 181.903C294.793 164.546 308.153 149.801 325.461 148.968Z" fill="url(#gridsome_paint0_linear)"/>
	<path d="M247.078 181.087C247.078 163.298 261.589 148.875 279.489 148.875H326.724C344.626 148.875 359.586 163.298 359.586 181.087C359.586 198.879 344.626 213.301 326.724 213.301H279.489C261.589 213.301 247.078 198.879 247.078 181.087Z" fill="#00A672"/>
	<path d="M147.967 181.134C147.967 163.318 162.386 148.875 180.153 148.875C197.921 148.875 212.34 163.318 212.34 181.134C212.34 198.951 197.921 213.395 180.153 213.395C162.386 213.395 147.967 198.951 147.967 181.134Z" fill="#00A672"/>
	<path fill-rule="evenodd" clip-rule="evenodd" d="M211.448 30.4106C212.168 47.7726 198.714 62.4318 181.4 63.1528C106.659 66.2654 61.0304 125.009 63.2514 180.788C63.9428 198.15 50.7478 212.788 33.4327 213.481C16.1177 214.175 0.891028 200.161 0.199662 182.799C-3.41965 91.9026 72.2652 2.04427 178.797 0.279562C196.11 -0.441471 210.729 13.0487 211.448 30.4106Z" fill="#00A672"/>
	<defs>
		<linearGradient id="gridsome_paint0_linear" x1="180.034" y1="147.184" x2="180.034" y2="359.635" gradientUnits="userSpaceOnUse">
			<stop stop-color="#00583E"/>
			<stop offset="1" stop-color="#00835C"/>
		</linearGradient>
	</defs>
</svg>
