<svg width="318" height="360" viewBox="0 0 318 360" fill="none" xmlns="http://www.w3.org/2000/svg">
	<path d="M28.9219 323.438L0.09375 0H317.203L288.375 323.438L158.297 360" fill="#E34F26"/>
	<path d="M159 331.875L263.766 303.047L288.375 26.0156H159" fill="#EF652A"/>
	<path d="M159 146.25H106.266L102.75 105.469H159V66.0938H158.297H59.1562L69.7031 186.328H159V146.25ZM159 249.609H158.297L114 237.656L111.188 206.016H71.8125L76.7344 268.594L158.297 291.094H159V249.609Z" fill="#EBEBEB"/>
	<path d="M158.297 146.25V186.328H207.516L202.594 237.656L158.297 249.609V291.094L239.859 268.594L251.109 146.25H158.297ZM158.297 66.0938V105.469H254.625L258.141 66.0938H158.297Z" fill="white"/>
</svg>
