<svg width="360" height="360" viewBox="0 0 360 360" fill="none">
  <path d="M360 0H0V360H360V0Z" fill="#F7DF1E" />
  <path
    d="M214.286 297.217L241.832 281.268C249.084 293.11 258.508 301.809 275.181 301.809C289.199 301.809 298.138 294.801 298.138 285.134C298.138 273.535 288.956 269.426 273.489 262.662L265.034 259.035C240.625 248.646 224.434 235.596 224.434 208.048C224.434 182.674 243.766 163.341 273.974 163.341C295.481 163.341 310.946 170.833 322.061 190.407L295.721 207.322C289.921 196.932 283.639 192.824 273.974 192.824C264.066 192.824 257.782 199.107 257.782 207.322C257.782 217.472 264.066 221.581 278.564 227.864L287.021 231.489C315.778 243.814 331.969 256.379 331.969 284.651C331.969 315.101 308.046 331.774 275.906 331.774C244.491 331.774 224.192 316.792 214.286 297.217Z"
    fill="black" />
  <path
    d="M94.6571 300.842L122.207 284.169C127.522 293.593 132.357 301.566 143.954 301.566C155.071 301.566 162.079 297.217 162.079 280.303V165.274H195.91V280.781C195.91 315.821 175.371 331.771 145.404 331.771C118.341 331.771 102.631 317.754 94.6571 300.839"
    fill="black" />
</svg>