<svg width="300" height="360" viewBox="0 0 300 360" fill="none">
	<path
		d="M299.045 158.755L249.382 131.291L207.464 156.873L206.945 183.027L186.573 169.609L158.864 186.491L157.664 157.909L129.082 138.818L156.355 124.718C156.136 124.718 156.355 127.445 152.318 31.0636L87.8182 0L0 27.2727L19.6091 121.718L49.0909 144.545L26.6727 155.182L41.3182 226.364L61.9091 245.7L47.1818 254.673L58.6091 309.709L104.809 358.636C105.027 358.364 109.664 354.791 164.236 311.4L162.655 274.009L186.055 293.864C186.382 293.536 191.073 290.073 233.945 255.982L235.609 228.327L253.282 240.6C253.636 240.273 257.591 237.273 292.173 209.7L299.045 158.755Z"
		fill="#231F20" />
	<path d="M257.836 188.182L299.045 158.755L249.382 131.291L207.464 156.873L257.836 188.182Z"
		fill="black" />
	<path d="M253.282 240.545L257.836 188.182L207.464 156.873L206.427 208.009L253.282 240.545Z"
		fill="#004B16" />
	<path d="M186.055 293.809V239.564L135.164 200.973L139.173 254.264L186.055 293.809Z" fill="#004B16" />
	<path d="M186.055 239.564L237.164 202.936L186.573 169.609L135.164 200.973L186.055 239.564Z"
		fill="black" />
	<path d="M104.809 358.582L96.6818 303.164L47.1818 254.618L58.6091 309.655L104.809 358.582Z"
		fill="#004B16" />
	<path d="M96.6818 303.164L161.891 256.636L111.355 215.482L47.1818 254.618L96.6818 303.164Z"
		fill="black" />
	<path d="M92.4545 274.364L81.7091 201.055L26.5636 155.209L41.3182 226.309L92.4545 274.364Z"
		fill="#004B16" />
	<path d="M81.7091 201.055L157.664 157.909L100.936 119.891L26.5636 155.209L81.7091 201.055Z"
		fill="black" />
	<path d="M76.5545 166.036L61.8273 65.6455L0 27.3L19.6091 121.718L76.5545 166.036Z" fill="#004B16" />
	<path d="M61.8273 65.6455L152.209 31.0091L87.8182 0L0 27.3L61.8273 65.6455Z" fill="black" />
	<path
		d="M292.173 209.645C253.936 240 253.091 240.545 253.282 240.545C258.027 185.727 257.618 188.182 257.836 188.182C301.473 156.955 298.745 158.755 299.045 158.755L292.173 209.645Z"
		fill="#1CB35C" />
	<path
		d="M233.945 255.927C186.627 293.564 185.864 293.809 186.055 293.809C185.591 237.027 185.864 239.564 186.055 239.564C240.6 200.564 236.973 202.936 237.164 202.936L233.945 255.927Z"
		fill="#1CB35C" />
	<path
		d="M164.236 311.345C105.164 358.309 104.618 358.582 104.809 358.582C96.4364 301.473 96.6273 303.164 96.6273 303.164C166.091 253.636 161.7 256.636 161.891 256.636L164.236 311.345Z"
		fill="#1CB35C" />
	<path
		d="M152.209 31.0091C156.355 127.473 156.027 124.664 156.245 124.664C78.0818 165.273 76.3636 166.036 76.5545 166.036C61.5 63.4091 61.6364 65.6455 61.8273 65.6455L152.209 31.0091Z"
		fill="#1CB35C" />
	<path
		d="M157.664 157.909C160.8 231.027 160.391 228.491 160.691 228.491C93.0273 273.955 92.2636 274.364 92.5091 274.364C81.6 199.145 81.6 201.055 81.7636 201.055L157.664 157.909Z"
		fill="#1CB35C" />
</svg>