<svg width="360" height="360" viewBox="0 0 360 360" fill="none">
  <path
    d="M260.617 124.929L260.486 124.873C260.411 124.845 260.336 124.817 260.27 124.751C260.162 124.635 260.082 124.496 260.037 124.345C259.991 124.194 259.981 124.034 260.007 123.878L267.265 79.5059L301.299 113.55L265.903 128.61C265.805 128.65 265.699 128.669 265.593 128.666H265.452C265.406 128.638 265.359 128.6 265.265 128.507C263.947 127.04 262.372 125.827 260.617 124.929V124.929ZM309.984 122.225L346.375 158.617C353.933 166.184 357.717 169.959 359.097 174.334C359.304 174.982 359.473 175.629 359.604 176.296L272.635 139.463C272.588 139.444 272.541 139.425 272.494 139.407C272.147 139.266 271.743 139.107 271.743 138.75C271.743 138.393 272.156 138.224 272.504 138.083L272.616 138.036L309.984 122.225V122.225ZM358.121 187.976C356.243 191.506 352.581 195.168 346.385 201.374L305.355 242.394L252.289 231.343L252.008 231.287C251.538 231.212 251.041 231.127 251.041 230.705C250.839 228.516 250.189 226.392 249.131 224.465C248.073 222.537 246.63 220.849 244.891 219.504C244.675 219.288 244.731 218.95 244.797 218.64C244.797 218.593 244.797 218.546 244.816 218.509L254.796 157.237L254.834 157.03C254.89 156.561 254.974 156.016 255.397 156.016C257.536 155.75 259.6 155.061 261.47 153.989C263.34 152.917 264.978 151.484 266.288 149.772C266.373 149.679 266.429 149.575 266.542 149.519C266.842 149.378 267.199 149.519 267.509 149.65L358.112 187.976H358.121ZM295.919 251.83L228.451 319.299L239.999 248.318L240.018 248.225C240.027 248.131 240.046 248.037 240.074 247.952C240.168 247.727 240.412 247.633 240.647 247.539L240.76 247.492C243.288 246.413 245.525 244.75 247.285 242.638C247.51 242.375 247.783 242.122 248.13 242.075C248.22 242.06 248.312 242.06 248.402 242.075L295.91 251.839L295.919 251.83ZM214.17 333.579L206.565 341.184L122.488 219.673C122.457 219.628 122.426 219.585 122.394 219.541C122.262 219.363 122.121 219.185 122.15 218.978C122.159 218.828 122.253 218.696 122.356 218.584L122.45 218.462C122.704 218.086 122.92 217.711 123.154 217.307L123.342 216.978L123.37 216.95C123.502 216.725 123.624 216.509 123.849 216.387C124.046 216.293 124.318 216.33 124.534 216.377L217.682 235.587C217.942 235.628 218.188 235.734 218.395 235.897C218.517 236.019 218.546 236.15 218.574 236.301C219.223 238.759 220.433 241.034 222.107 242.947C223.781 244.861 225.875 246.362 228.225 247.333C228.488 247.464 228.376 247.755 228.254 248.065C228.193 248.201 228.146 248.342 228.113 248.487C226.939 255.623 216.874 317.008 214.17 333.579ZM198.284 349.456C192.679 355.004 189.374 357.943 185.637 359.126C181.953 360.291 177.999 360.291 174.314 359.126C169.939 357.737 166.155 353.962 158.597 346.395L74.1629 261.96L96.2175 227.757C96.3208 227.588 96.424 227.437 96.593 227.315C96.8278 227.146 97.1658 227.222 97.4474 227.315C102.51 228.843 107.945 228.567 112.826 226.536C113.08 226.442 113.333 226.377 113.531 226.555C113.629 226.645 113.717 226.746 113.794 226.855L198.284 349.465V349.456ZM66.0228 253.82L46.6535 234.451L84.9038 218.133C85.0016 218.09 85.107 218.068 85.2137 218.067C85.5329 218.067 85.7207 218.387 85.8897 218.678C86.2741 219.269 86.6812 219.845 87.1102 220.405L87.2323 220.555C87.345 220.715 87.2699 220.875 87.1572 221.025L66.0322 253.82H66.0228ZM38.0814 225.879L13.5764 201.374C9.40768 197.205 6.38445 194.182 4.28134 191.581L78.7917 207.035C78.8853 207.053 78.9792 207.068 79.0733 207.082C79.5334 207.157 80.0404 207.242 80.0404 207.674C80.0404 208.143 79.4865 208.359 79.017 208.538L78.8011 208.631L38.0814 225.879ZM0 178.981C0.0849147 177.403 0.368828 175.841 0.845002 174.334C2.23456 169.959 6.0089 166.184 13.5764 158.617L44.9353 127.258C59.3739 148.213 73.8516 169.141 88.3684 190.041C88.6219 190.379 88.9035 190.755 88.6125 191.037C87.2417 192.548 85.8709 194.201 84.9038 195.994C84.7989 196.225 84.6375 196.425 84.4344 196.576C84.3124 196.651 84.1809 196.623 84.0401 196.595H84.0213L0 178.972V178.981ZM53.329 118.864L95.4945 76.6986C99.4567 78.4355 113.878 84.5289 126.778 89.9745C136.543 94.1056 145.444 97.8612 148.241 99.0817C148.523 99.1944 148.777 99.3071 148.899 99.5887C148.974 99.7577 148.936 99.9737 148.899 100.152C148.231 103.196 148.33 106.358 149.188 109.353C150.045 112.349 151.633 115.085 153.809 117.315C154.091 117.597 153.809 118 153.565 118.348L153.433 118.545L110.62 184.859C110.507 185.047 110.404 185.206 110.216 185.328C109.991 185.469 109.672 185.403 109.409 185.338C107.744 184.901 106.032 184.668 104.311 184.643C102.771 184.643 101.1 184.925 99.4097 185.234H99.4003C99.2125 185.263 99.0435 185.3 98.8933 185.187C98.7274 185.052 98.5847 184.89 98.4708 184.709L53.329 118.864V118.864ZM104.01 68.1829L158.597 13.5958C166.155 6.0377 169.939 2.25397 174.314 0.873803C177.999 -0.291268 181.953 -0.291268 185.637 0.873803C190.013 2.25397 193.796 6.0377 201.354 13.5958L213.184 25.4258L174.361 85.5523C174.265 85.7274 174.134 85.8808 173.976 86.003C173.742 86.1626 173.413 86.0969 173.131 86.003C170.07 85.0741 166.829 84.905 163.688 85.5103C160.547 86.1156 157.601 87.477 155.105 89.4769C154.851 89.7398 154.476 89.5896 154.156 89.4487C149.086 87.2423 109.653 70.577 104.01 68.1829V68.1829ZM221.428 33.6692L257.275 69.5161L248.637 123.014V123.155C248.629 123.277 248.604 123.397 248.562 123.512C248.468 123.699 248.28 123.737 248.092 123.793C246.246 124.353 244.506 125.219 242.947 126.357C242.88 126.404 242.817 126.458 242.76 126.516C242.656 126.629 242.553 126.732 242.384 126.751C242.246 126.755 242.109 126.733 241.98 126.685L187.356 103.476L187.252 103.429C186.905 103.288 186.492 103.119 186.492 102.762C186.171 99.7182 185.177 96.7837 183.581 94.1713C183.318 93.7395 183.027 93.2888 183.253 92.8475L221.428 33.6692V33.6692ZM184.511 114.47L235.718 136.159C235.999 136.29 236.309 136.412 236.431 136.703C236.48 136.878 236.48 137.063 236.431 137.238C236.281 137.989 236.15 138.844 236.15 139.708V141.144C236.15 141.501 235.784 141.651 235.446 141.792L235.342 141.829C227.23 145.294 121.455 190.398 121.295 190.398C121.136 190.398 120.967 190.398 120.807 190.239C120.525 189.957 120.807 189.563 121.061 189.206C121.105 189.144 121.149 189.081 121.192 189.018L163.273 123.859L163.348 123.746C163.592 123.352 163.874 122.911 164.325 122.911L164.747 122.977C165.705 123.108 166.55 123.23 167.404 123.23C173.789 123.23 179.704 120.122 183.271 114.808C183.356 114.666 183.464 114.539 183.591 114.433C183.844 114.245 184.22 114.339 184.511 114.47V114.47ZM125.868 200.707L241.163 151.538C241.163 151.538 241.332 151.538 241.492 151.697C242.121 152.326 242.656 152.749 243.173 153.143L243.426 153.303C243.661 153.434 243.896 153.584 243.914 153.828C243.914 153.922 243.914 153.979 243.896 154.063L234.018 214.734L233.981 214.978C233.915 215.448 233.849 215.983 233.408 215.983C230.775 216.161 228.225 216.978 225.978 218.364C223.732 219.749 221.858 221.662 220.517 223.935L220.47 224.011C220.339 224.226 220.217 224.433 220.001 224.546C219.804 224.64 219.55 224.602 219.344 224.555L127.398 205.589C127.304 205.571 125.971 200.717 125.868 200.707V200.707Z"
    fill="url(#netlify_paint0_radial)" />
  <defs>
    <radialGradient id="netlify_paint0_radial" cx="0" cy="0" r="1" gradientUnits="userSpaceOnUse"
      gradientTransform="translate(-12.0735 174.921) rotate(90) scale(359.604 415.176)">
      <stop stop-color="#20C6B7" />
      <stop offset="1" stop-color="#4D9ABF" />
    </radialGradient>
  </defs>
</svg>