<svg width="788" height="160" fill="none" viewBox="0 0 788 160">
	<path fill="#000"
		d="M523.838.066h137.256V25.4h-54.448v133.278H579.42V25.4h-55.582V.066ZM298.104.066V25.4h-110.02v40.754h88.478v25.334h-88.478v41.856h110.02v25.334H160.86V25.4h-.011V.066h137.255ZM366.64.132h-35.628l127.612 158.612h35.732l-63.814-79.251L494.254.253l-35.63.055-45.92 57.031L366.64.132ZM403.2 113.43l-17.842-22.184-54.448 67.619h35.73l36.56-45.435Z" />
	<path fill="#000" fill-rule="evenodd"
		d="M161.814 158.678 34.03 0H0v158.612h27.224V33.903l100.389 124.775h34.201Z" clip-rule="evenodd" />
	<path fill="#000"
		d="M667.214 157.709c-1.994 0-3.69-.69-5.11-2.072-1.42-1.381-2.122-3.054-2.104-5.035-.018-1.927.684-3.581 2.104-4.962 1.42-1.382 3.116-2.072 5.11-2.072 1.918 0 3.596.69 5.016 2.072 1.44 1.381 2.158 3.035 2.178 4.962-.02 1.309-.352 2.508-1.016 3.581-.682 1.091-1.548 1.945-2.638 2.563a6.807 6.807 0 0 1-3.54.963ZM713.68 90.89h12.064v46.479c-.018 4.272-.942 7.925-2.748 10.997-1.826 3.072-4.354 5.417-7.6 7.071-3.228 1.636-7.01 2.472-11.308 2.472-3.93 0-7.452-.709-10.588-2.09-3.136-1.382-5.626-3.454-7.452-6.18-1.846-2.727-2.75-6.126-2.75-10.198h12.084c.018 1.782.424 3.327 1.198 4.617.774 1.291 1.844 2.272 3.21 2.963 1.382.691 2.97 1.036 4.758 1.036 1.938 0 3.598-.4 4.944-1.218 1.346-.8 2.38-1.999 3.1-3.599.7-1.581 1.07-3.544 1.088-5.871V90.891ZM775.382 109.068c-.294-2.818-1.586-5.017-3.836-6.58-2.27-1.582-5.202-2.363-8.8-2.363-2.526 0-4.702.381-6.51 1.127-1.808.763-3.21 1.781-4.17 3.071-.958 1.291-1.438 2.763-1.476 4.418 0 1.381.332 2.581.978 3.58.646 1.018 1.512 1.873 2.638 2.563 1.106.709 2.342 1.291 3.69 1.763 1.364.473 2.73.873 4.094 1.2l6.29 1.545a43.57 43.57 0 0 1 7.324 2.363c2.342.982 4.464 2.236 6.326 3.745a16.756 16.756 0 0 1 4.428 5.453c1.088 2.126 1.642 4.617 1.642 7.489 0 3.871-.996 7.27-3.008 10.215-2.01 2.926-4.906 5.217-8.706 6.871-3.782 1.636-8.356 2.472-13.742 2.472-5.202 0-9.74-.8-13.558-2.399-3.836-1.582-6.826-3.908-8.984-6.962-2.158-3.054-3.32-6.78-3.486-11.161h11.954c.166 2.29.904 4.199 2.158 5.744 1.272 1.527 2.932 2.654 4.962 3.417 2.048.746 4.334 1.127 6.862 1.127 2.638 0 4.962-.4 6.972-1.181 1.992-.782 3.56-1.872 4.686-3.29 1.144-1.4 1.716-3.054 1.734-4.944-.018-1.727-.536-3.163-1.532-4.29-1.014-1.127-2.416-2.072-4.206-2.836-1.806-.763-3.91-1.454-6.308-2.054l-7.636-1.926c-5.516-1.4-9.888-3.527-13.08-6.38-3.208-2.854-4.796-6.635-4.796-11.379 0-3.89 1.07-7.307 3.23-10.234 2.138-2.926 5.072-5.198 8.78-6.816C754.022 90.8 758.228 90 762.912 90c4.76 0 8.928.8 12.526 2.436 3.596 1.618 6.42 3.872 8.466 6.743 2.048 2.872 3.118 6.162 3.174 9.889h-11.696Z" />
</svg>