<svg width="377" height="246" fill="none" viewBox="0 0 377 246">
	<path fill="#00dc82"
		d="M211.497 246h140.145a25.984 25.984 0 0 0 12.685-3.3 24.895 24.895 0 0 0 9.275-9.004 24.002 24.002 0 0 0 3.395-12.303c0-4.31-1.18-8.557-3.402-12.294l-94.129-158.13a24.977 24.977 0 0 0-9.283-9.003 25.96 25.96 0 0 0-25.355 0c-3.848 2.158-7.052 5.258-9.275 9.003l-24.064 40.463-47.06-79.125a24.994 24.994 0 0 0-9.267-9.003 25.974 25.974 0 0 0-25.355 0c-3.857 2.158-7.06 5.267-9.283 9.003L3.392 209.1a24.021 24.021 0 0 0-.009 24.598 24.838 24.838 0 0 0 9.275 9.004A25.957 25.957 0 0 0 25.343 246h87.97c34.86 0 60.558-14.853 78.248-43.825l42.948-72.137 22.996-38.606 69.037 115.961h-92.033zm-99.618-38.647-61.396-.016 92.033-154.606 45.921 77.307-30.741 51.666c-11.753 18.805-25.1 25.65-45.817 25.65z" />
</svg>