<svg width="670" height="352" viewBox="0 0 670 352" fill="none" xmlns="http://www.w3.org/2000/svg">
	<path d="M0 176C0 273.201 149.798 352 334.577 352C519.355 352 669.154 273.201 669.154 176C669.154 78.8 519.355 -2.63463e-06 334.577 -2.63463e-06C149.798 -2.63463e-06 0 78.8 0 176Z" fill="url(#php_paint0_radial)"/>
	<path d="M334.577 338.933C512.138 338.933 656.084 265.985 656.084 176C656.084 86.0155 512.138 13.0665 334.577 13.0665C157.015 13.0665 13.0694 86.0155 13.0694 176C13.0694 265.985 157.015 338.933 334.577 338.933Z" fill="#777BB3"/>
	<path d="M181.779 196.201C196.379 196.201 207.279 193.509 214.175 188.201C220.998 182.948 225.71 173.846 228.18 161.151C230.483 149.284 229.606 140.999 225.573 136.527C221.451 131.96 212.537 129.644 199.08 129.644H175.748L162.813 196.201H181.779ZM105.465 278.187C104.381 278.187 103.353 277.703 102.664 276.866C101.974 276.03 101.695 274.929 101.902 273.865L136.182 97.4873C136.514 95.7822 138.009 94.5503 139.746 94.5503H213.629C236.849 94.5503 254.133 100.855 264.996 113.292C275.917 125.793 279.29 143.269 275.019 165.232C273.282 174.179 270.293 182.489 266.136 189.929C261.974 197.377 256.474 204.269 249.786 210.417C241.78 217.91 232.718 223.343 222.877 226.54C213.193 229.695 200.755 231.295 185.91 231.295H155.993L147.45 275.249C147.118 276.955 145.625 278.187 143.887 278.187H105.465Z" fill="black"/>
	<path d="M178.74 133.274H199.08C215.322 133.274 220.963 136.838 222.88 138.961C226.06 142.488 226.66 149.923 224.617 160.462C222.32 172.261 218.062 180.626 211.961 185.324C205.714 190.133 195.559 192.57 181.779 192.57H167.216L178.74 133.274ZM213.63 90.9193H139.745C136.27 90.9193 133.282 93.3831 132.619 96.7945L98.3383 273.172C97.9244 275.301 98.4835 277.502 99.8618 279.176C101.241 280.849 103.296 281.817 105.465 281.817H143.886C147.363 281.817 150.351 279.353 151.014 275.942L158.986 234.925H185.911C201.136 234.925 213.954 233.264 224.004 229.991C234.34 226.633 243.849 220.939 252.266 213.069C259.226 206.665 264.96 199.476 269.304 191.701C273.65 183.924 276.772 175.251 278.583 165.923C283.079 142.805 279.427 124.292 267.73 110.903C256.146 97.6428 237.944 90.9193 213.63 90.9193ZM158.408 199.831H181.779C197.27 199.831 208.809 196.913 216.39 191.077C223.973 185.239 229.087 175.496 231.744 161.844C234.287 148.736 233.129 139.485 228.27 134.097C223.405 128.708 213.677 126.013 199.08 126.013H172.755L158.408 199.831V199.831ZM213.63 98.1801C235.856 98.1801 252.071 104.013 262.262 115.68C272.453 127.347 275.522 143.631 271.456 164.539C269.782 173.151 266.952 181.026 262.967 188.159C258.977 195.298 253.767 201.825 247.329 207.744C239.657 214.924 231.134 220.04 221.756 223.087C212.377 226.143 200.432 227.664 185.911 227.664H153L143.886 274.556H105.465L139.745 98.1801H213.63" fill="white"/>
	<path d="M363.115 231.295C362.031 231.295 361.003 230.811 360.315 229.973C359.624 229.137 359.344 228.037 359.551 226.972L374.715 148.932C376.158 141.511 375.802 136.184 373.715 133.933C372.437 132.557 368.598 130.249 357.248 130.249H329.776L310.71 228.357C310.379 230.063 308.884 231.295 307.147 231.295H269.027C267.943 231.295 266.916 230.811 266.226 229.973C265.536 229.137 265.257 228.036 265.464 226.972L299.744 50.5948C300.076 48.8897 301.57 47.6578 303.308 47.6578H341.427C342.511 47.6578 343.539 48.1418 344.229 48.978C344.918 49.8154 345.198 50.9154 344.991 51.9804L336.718 94.5503H366.272C388.787 94.5503 404.054 98.5195 412.946 106.685C422.01 115.016 424.838 128.336 421.353 146.28L405.403 228.357C405.071 230.063 403.578 231.295 401.839 231.295H363.115Z" fill="black"/>
	<path d="M341.427 44.0268H303.308C299.831 44.0268 296.844 46.4906 296.18 49.902L261.9 226.28C261.486 228.408 262.045 230.609 263.425 232.283C264.804 233.957 266.859 234.925 269.028 234.925H307.147C310.622 234.925 313.611 232.461 314.274 229.05L332.769 133.879H357.248C368.579 133.879 370.957 136.299 371.052 136.403C371.74 137.143 372.644 140.567 371.152 148.24L355.988 226.28C355.574 228.408 356.133 230.609 357.512 232.283C358.892 233.957 360.947 234.925 363.115 234.925H401.839C405.315 234.925 408.304 232.461 408.967 229.05L424.915 146.973C428.658 127.706 425.456 113.253 415.402 104.013C405.809 95.202 389.738 90.9193 366.272 90.9193H341.121L348.555 52.6732C348.968 50.5446 348.41 48.3421 347.03 46.6697C345.651 44.9961 343.596 44.0268 341.427 44.0268ZM341.427 51.2876L332.314 98.1801H366.272C387.64 98.1801 402.378 101.91 410.489 109.359C418.601 116.814 421.031 128.892 417.789 145.588L401.839 227.664H363.115L378.279 149.625C380.005 140.748 379.371 134.692 376.375 131.463C373.377 128.235 367.001 126.618 357.248 126.618H326.782L307.147 227.664H269.028L303.308 51.2876H341.427Z" fill="white"/>
	<path d="M481.668 196.201C496.268 196.201 507.167 193.509 514.064 188.201C520.887 182.949 525.599 173.848 528.07 161.151C530.373 149.284 529.496 140.999 525.462 136.527C521.339 131.96 512.425 129.644 498.969 129.644H475.636L462.701 196.201H481.668ZM405.354 278.187C404.271 278.187 403.243 277.703 402.554 276.866C401.864 276.03 401.584 274.929 401.791 273.865L436.071 97.4873C436.404 95.7822 437.897 94.5503 439.636 94.5503H513.518C536.739 94.5503 554.021 100.855 564.886 113.292C575.807 125.792 579.179 143.268 574.909 165.232C573.169 174.179 570.181 182.489 566.024 189.929C561.863 197.377 556.363 204.269 549.674 210.417C541.668 217.91 532.607 223.343 522.766 226.54C513.081 229.695 500.644 231.295 485.799 231.295H455.881L447.341 275.249C447.008 276.955 445.515 278.187 443.776 278.187H405.354Z" fill="black"/>
	<path d="M478.629 133.274H498.969C515.21 133.274 520.852 136.838 522.769 138.961C525.95 142.488 526.55 149.923 524.505 160.461C522.209 172.261 517.95 180.626 511.85 185.324C505.603 190.133 495.448 192.57 481.668 192.57H467.106L478.629 133.274ZM513.519 90.9193H439.635C436.16 90.9193 433.172 93.3831 432.509 96.7945L398.228 273.172C397.814 275.301 398.374 277.502 399.752 279.176C401.131 280.849 403.186 281.817 405.355 281.817H443.776C447.252 281.817 450.241 279.353 450.904 275.942L458.875 234.925H485.799C501.025 234.925 513.843 233.264 523.893 229.991C534.229 226.633 543.74 220.938 552.157 213.066C559.117 206.663 564.849 199.476 569.193 191.701C573.539 183.924 576.661 175.251 578.472 165.923C582.968 142.804 579.316 124.291 567.619 110.902C556.035 97.6428 537.834 90.9193 513.519 90.9193ZM458.298 199.831H481.668C497.159 199.831 508.697 196.913 516.279 191.077C523.863 185.239 528.976 175.496 531.633 161.844C534.177 148.736 533.019 139.485 528.159 134.097C523.294 128.708 513.566 126.013 498.969 126.013H472.644L458.298 199.831ZM513.519 98.1801C535.745 98.1801 551.96 104.013 562.151 115.68C572.343 127.347 575.411 143.631 571.345 164.539C569.671 173.151 566.841 181.026 562.856 188.159C558.866 195.298 553.656 201.825 547.218 207.744C539.546 214.924 531.023 220.04 521.645 223.087C512.266 226.143 500.321 227.664 485.799 227.664H452.889L443.776 274.556H405.355L439.635 98.1801H513.519" fill="white"/>
	<defs>
		<radialGradient id="php_paint0_radial" cx="0" cy="0" r="1" gradientUnits="userSpaceOnUse" gradientTransform="translate(200.881 61.8762) scale(439.347)">
			<stop stop-color="#AEB2D5"/>
			<stop offset="0.3" stop-color="#AEB2D5"/>
			<stop offset="0.75" stop-color="#484C89"/>
			<stop offset="1" stop-color="#484C89"/>
		</radialGradient>
		<rect width="669.154" height="352" fill="white"/>
	</defs>
</svg>
