<svg width="404" height="360" viewBox="0 0 404 360" fill="none">
	<path fill-rule="evenodd" clip-rule="evenodd"
		d="M84.879 112.383C80.6837 95.9017 78.2443 80.6056 77.6423 67.0786C76.2833 36.5337 84.716 14.4662 100.998 5.0662C117.28 -4.33384 140.606 -0.603794 166.38 15.8463C177.794 23.1303 189.82 32.893 201.996 44.7666C214.172 32.893 226.198 23.1303 237.611 15.8463C263.385 -0.603794 286.712 -4.33384 302.994 5.0662C319.275 14.4662 327.708 36.5337 326.349 67.0786C325.747 80.6056 323.308 95.9017 319.112 112.383C335.484 116.989 349.949 122.525 361.965 128.768C389.098 142.862 403.991 161.2 403.991 180C403.991 198.8 389.098 217.138 361.965 231.232C349.949 237.475 335.484 243.011 319.112 247.617C323.308 264.098 325.747 279.394 326.349 292.921C327.708 323.466 319.275 345.534 302.994 354.934C286.712 364.334 263.385 360.604 237.611 344.154C226.198 336.87 214.172 327.107 201.996 315.233C189.82 327.107 177.794 336.87 166.38 344.154C140.606 360.604 117.28 364.334 100.998 354.934C84.716 345.534 76.2833 323.466 77.6423 292.921C78.2443 279.394 80.6837 264.098 84.879 247.617C68.5078 243.011 54.0423 237.475 42.0268 231.232C14.8939 217.138 0 198.8 0 180C0 161.2 14.8939 142.862 42.0268 128.768C54.0423 122.525 68.5078 116.989 84.879 112.383ZM302.173 251.896C285.608 255.634 267.509 258.483 248.331 260.258C237.204 275.982 225.688 290.232 214.169 302.705C225.393 313.638 236.478 322.641 247.04 329.383C257.116 335.813 266.624 340.135 275.243 341.838C282.451 343.263 288.909 342.829 294.232 339.756C299.553 336.686 303.159 331.308 305.528 324.355C308.364 316.038 309.373 305.644 308.842 293.702C308.285 281.185 306.03 267.082 302.173 251.896ZM101.818 251.896C97.9618 267.082 95.7064 281.185 95.1491 293.702C94.6181 305.644 95.6275 316.038 98.4638 324.355C100.832 331.308 104.439 336.686 109.759 339.756C115.082 342.829 121.541 343.263 128.748 341.838C137.368 340.135 146.876 335.813 156.951 329.383C167.513 322.641 178.598 313.638 189.822 302.705C178.301 290.227 166.785 275.977 155.661 260.258C136.477 258.481 118.378 255.631 101.818 251.896ZM178.482 261.83C186.229 272.076 194.112 281.553 201.996 290.143C209.879 281.553 217.762 272.076 225.509 261.83C217.802 262.182 209.955 262.363 201.996 262.363C194.036 262.363 186.19 262.182 178.482 261.83ZM238.657 116.502C226.8 115.622 214.54 115.159 201.996 115.159C189.452 115.159 177.192 115.622 165.334 116.502C158.644 126.328 152.115 136.717 145.843 147.581C139.571 158.442 133.84 169.291 128.675 180C133.84 190.709 139.571 201.558 145.843 212.419C152.115 223.283 158.644 233.672 165.334 243.498C177.192 244.378 189.452 244.841 201.996 244.841C214.54 244.841 226.8 244.378 238.657 243.498C245.347 233.672 251.877 223.283 258.149 212.419C264.421 201.558 270.151 190.709 275.317 180C270.151 169.291 264.421 158.442 258.149 147.581C251.877 136.717 245.347 126.328 238.657 116.502ZM119.372 200.551C114.372 212.385 110.106 223.948 106.61 235.07C117.992 237.604 130.136 239.691 142.885 241.279C138.727 234.781 134.645 228.075 130.667 221.183C126.688 214.291 122.921 207.401 119.372 200.551ZM284.619 200.551C281.071 207.401 277.304 214.291 273.324 221.183C269.347 228.075 265.265 234.781 261.106 241.279C273.855 239.691 286.002 237.604 297.381 235.07C293.883 223.948 289.619 212.385 284.619 200.551ZM314.349 129.191C309.302 145.407 302.72 162.504 294.669 180C302.723 197.499 309.305 214.598 314.349 230.809C329.43 226.556 342.768 221.456 353.887 215.681C364.493 210.172 372.992 204.099 378.777 197.486C383.612 191.955 386.466 186.143 386.466 180C386.466 173.857 383.612 168.045 378.777 162.514C372.992 155.901 364.493 149.828 353.887 144.319C342.768 138.544 329.43 133.444 314.349 129.191ZM89.6421 129.191C74.5616 133.444 61.2238 138.544 50.1046 144.319C39.498 149.828 30.9996 155.901 25.214 162.514C20.3799 168.045 17.5252 173.857 17.5252 180C17.5252 186.143 20.3799 191.955 25.214 197.486C30.9996 204.099 39.498 210.172 50.1046 215.681C61.2238 221.456 74.5616 226.556 89.6421 230.809C94.6891 214.593 101.271 197.496 109.323 180C101.269 162.501 94.6865 145.402 89.6421 129.191ZM201.996 143.199C222.307 143.199 238.797 159.688 238.797 180C238.797 200.312 222.307 216.801 201.996 216.801C181.684 216.801 165.195 200.312 165.195 180C165.195 159.688 181.684 143.199 201.996 143.199ZM261.106 118.721C265.265 125.219 269.347 131.925 273.324 138.817C277.304 145.709 281.071 152.599 284.619 159.449C289.619 147.615 293.885 136.052 297.381 124.93C285.999 122.396 273.855 120.309 261.106 118.721ZM142.885 118.721C130.136 120.309 117.989 122.396 106.61 124.93C110.109 136.052 114.372 147.615 119.372 159.449C122.921 152.599 126.688 145.709 130.667 138.817C134.645 131.925 138.727 125.219 142.885 118.721ZM302.173 108.104C306.03 92.9182 308.285 78.8155 308.842 66.2979C309.373 54.3559 308.364 43.9623 305.528 35.6452C303.159 28.6925 299.553 23.3143 294.232 20.244C288.909 17.1711 282.451 16.7374 275.243 18.1621C266.624 19.8655 257.116 24.187 247.04 30.6166C236.478 37.3591 225.393 46.3622 214.169 57.2948C225.69 69.773 237.206 84.0229 248.331 99.7422C267.515 101.519 285.613 104.369 302.173 108.104ZM189.822 57.2948C178.598 46.3622 167.513 37.3591 156.951 30.6166C146.876 24.187 137.368 19.8655 128.748 18.1621C121.541 16.7374 115.082 17.1711 109.759 20.244C104.439 23.3143 100.832 28.6925 98.4638 35.6452C95.6275 43.9623 94.6181 54.3559 95.1491 66.2979C95.7064 78.8155 97.9618 92.9182 101.818 108.104C118.384 104.366 136.482 101.516 155.661 99.7422C166.788 84.0176 178.304 69.7677 189.822 57.2948ZM201.996 69.8571C194.112 78.4475 186.229 87.9238 178.482 98.1702C186.19 97.818 194.036 97.6366 201.996 97.6366C209.955 97.6366 217.802 97.818 225.509 98.1702C217.762 87.9238 209.879 78.4475 201.996 69.8571Z"
		fill="#61DAFB" />
</svg>