<svg width="481" height="360" viewBox="0 0 481 360" fill="none" xmlns="http://www.w3.org/2000/svg">
	<path d="M413.441 206.722C396.649 206.816 382.108 210.85 369.913 216.854C365.41 207.942 360.907 200.155 360.156 194.339C359.312 187.585 358.28 183.457 359.312 175.389C360.344 167.321 365.035 155.876 365.035 154.938C364.941 154.094 364.003 149.966 354.34 149.872C344.678 149.779 336.328 151.749 335.39 154.282C334.452 156.814 332.576 162.631 331.356 168.635C329.668 177.453 312.031 208.692 301.993 225.109C298.71 218.73 295.896 213.101 295.333 208.598C294.489 201.844 293.457 197.716 294.489 189.648C295.52 181.581 300.211 170.136 300.211 169.198C300.117 168.353 299.179 164.226 289.517 164.132C279.854 164.038 271.505 166.008 270.567 168.541C269.629 171.074 268.597 177.078 266.533 182.894C264.563 188.71 241.11 240.869 235.012 254.472C231.916 261.414 229.196 266.949 227.226 270.701C225.256 274.454 227.132 270.983 226.944 271.358C225.256 274.548 224.318 276.33 224.318 276.33V276.424C223.004 278.769 221.597 281.021 220.94 281.021C220.471 281.021 219.533 274.735 221.128 266.105C224.599 247.999 233.042 219.762 232.948 218.73C232.948 218.261 234.543 213.289 227.507 210.756C220.659 208.223 218.22 212.445 217.657 212.445C217.094 212.445 216.625 213.946 216.625 213.946C216.625 213.946 224.224 182.144 202.084 182.144C188.2 182.144 169.063 197.247 159.588 211.037C153.584 214.321 140.826 221.263 127.317 228.674C122.157 231.488 116.81 234.49 111.744 237.211L110.712 236.085C83.882 207.473 34.2558 187.209 36.3197 148.747C37.0702 134.769 41.9484 97.901 131.632 53.2468C205.086 16.6603 263.906 26.6981 274.131 49.0252C288.672 80.9211 242.705 140.21 166.342 148.747C137.261 152.03 121.969 140.773 118.123 136.551C114.089 132.142 113.526 131.954 112.025 132.799C109.586 134.112 111.087 138.052 112.025 140.397C114.277 146.308 123.658 156.814 139.606 162.068C153.584 166.665 187.731 169.198 229.008 153.25C275.257 135.332 311.375 85.6117 300.774 44.0532C289.986 1.74432 219.815 -12.1398 153.49 11.4069C113.995 25.4786 71.2175 47.4304 40.4474 76.2305C3.86096 110.378 -1.95534 140.21 0.483752 152.593C9.02059 196.778 69.9042 225.578 94.2951 246.873C93.0756 247.53 91.9498 248.187 90.9179 248.75C78.7224 254.754 32.2858 279.051 20.6532 304.755C7.5196 333.837 22.717 354.756 32.8487 357.571C64.1817 366.295 96.2651 350.629 113.62 324.831C130.882 299.033 128.818 265.542 120.844 250.251L120.562 249.688L130.131 244.059C136.323 240.4 142.42 237.023 147.768 234.115C144.766 242.277 142.608 251.939 141.482 266.011C140.169 282.522 146.923 303.911 155.835 312.354C159.775 316.012 164.466 316.106 167.374 316.106C177.693 316.106 182.384 307.569 187.544 297.344C193.923 284.867 199.551 270.42 199.551 270.42C199.551 270.42 192.516 309.539 211.747 309.539C218.783 309.539 225.819 300.44 229.008 295.749V295.843C229.008 295.843 229.196 295.561 229.571 294.905C230.322 293.779 230.697 293.122 230.697 293.122V292.935C233.511 288.057 239.797 276.893 249.178 258.412C261.279 234.584 272.912 204.752 272.912 204.752C272.912 204.752 274.038 212.069 277.509 224.077C279.573 231.207 284.075 238.993 287.546 246.592C284.732 250.532 283.044 252.784 283.044 252.784L283.137 252.877C280.886 255.879 278.353 259.069 275.726 262.258C266.157 273.703 254.712 286.743 253.212 290.496C251.429 294.905 251.804 298.188 255.275 300.815C257.808 302.691 262.311 303.066 267.096 302.691C275.726 302.128 281.73 299.971 284.732 298.657C289.423 296.969 294.77 294.436 299.93 290.683C309.311 283.741 315.033 273.891 314.47 260.757C314.189 253.534 311.844 246.404 308.935 239.65C309.78 238.43 310.624 237.211 311.468 235.897C326.291 214.227 337.736 190.399 337.736 190.399C337.736 190.399 338.861 197.716 342.332 209.724C344.115 215.822 347.68 222.482 350.869 229.049C336.985 240.4 328.261 253.534 325.259 262.165C319.724 278.113 324.039 285.336 332.201 287.025C335.859 287.775 341.113 286.087 345.053 284.398C349.931 282.803 355.841 280.083 361.282 276.049C370.663 269.107 379.669 259.444 379.2 246.404C378.919 240.4 377.324 234.49 375.166 228.862C386.987 223.983 402.278 221.169 421.697 223.514C463.443 228.393 471.698 254.472 470.103 265.354C468.509 276.236 459.784 282.24 456.876 284.116C453.968 285.899 453.03 286.556 453.311 287.869C453.686 289.839 455 289.745 457.533 289.37C461.004 288.807 479.484 280.458 480.235 260.382C481.361 234.584 456.876 206.441 413.441 206.722ZM91.4808 315.262C77.6905 330.365 58.2715 336.088 50.0161 331.21C41.1041 326.05 44.5751 303.817 61.5549 287.775C71.8742 278.019 85.2892 269.013 94.1075 263.478C96.0775 262.258 99.0795 260.476 102.644 258.318C103.207 257.943 103.582 257.755 103.582 257.755C104.239 257.38 104.99 256.911 105.74 256.442C112.025 279.332 106.022 299.408 91.4808 315.262ZM192.328 246.686C187.544 258.412 177.412 288.526 171.314 286.837C166.061 285.43 162.871 262.634 170.282 240.119C174.035 228.768 182.009 215.259 186.699 210.006C194.298 201.562 202.553 198.748 204.617 202.219C207.056 206.722 195.33 239.368 192.328 246.686ZM275.539 286.462C273.475 287.494 271.599 288.244 270.754 287.681C270.098 287.306 271.599 285.899 271.599 285.899C271.599 285.899 282.012 274.735 286.139 269.576C288.485 266.574 291.299 263.103 294.301 259.163V260.288C294.301 273.797 281.355 282.803 275.539 286.462ZM339.706 271.827C338.205 270.701 338.392 267.23 343.458 256.348C345.428 252.033 349.931 244.81 357.717 237.961C358.655 240.776 359.218 243.496 359.125 246.029C359.031 262.915 347.023 269.201 339.706 271.827Z" fill="#CF649A"/>
</svg>
