<svg width="272" height="320" fill="none" viewBox="0 0 272 320">
	<path fill="#fff" fill-rule="evenodd" d="M38.788 38.788h193.939v193.939H38.787V38.787Z"
		clip-rule="evenodd" />
	<path fill="#0AB3AF"
		d="M95.156 147.52h62.691c3.617 0 6.333 1.765 8.747 4.722a17.436 17.436 0 0 1 3.316 10.619c0 4.421-1.512 7.961-3.917 10.327-2.715 2.356-6.032 3.83-9.649 3.83H95.156V147.52ZM163.879 101.198c0 5.013-1.203 8.853-3.918 10.618-2.414 1.774-5.43 3.248-8.436 3.248H95.147v-26.55h57.58a12.202 12.202 0 0 1 7.836 2.948c2.113 2.065 3.316 5.314 3.316 9.736Z" />
	<path fill="#0AB3AF" fill-rule="evenodd"
		d="M14.08 0h245.566l-.291.31c7.816 0 12.509 6.235 12.509 13.722V258.87c0 7.797-4.693 12.471-12.199 12.471H95.108L50.056 320v-48.97H13.77C6.255 271.03 0 266.356 0 258.861V13.721C0 6.235 6.255 0 14.08 0Zm190.846 212.402a37.75 37.75 0 0 0 13.45-13.73h-.32c3.122-5.605 4.693-12.16 4.693-19.957 0-12.16-2.822-21.837-8.456-29.323-5.934-7.167-13.76-12.16-23.767-14.963a39.06 39.06 0 0 0 18.764-16.844c4.072-7.486 6.264-15.282 6.264-23.389a46.692 46.692 0 0 0-10.638-30.254c-3.442-4.063-7.825-7.486-12.509-9.988-5.013-2.803-10.327-4.053-16.582-4.053H50.055v174.661h110.76c8.446 0 16.581-1.561 24.087-3.432 7.515-1.552 14.08-4.994 20.024-8.728Z"
		clip-rule="evenodd" />
</svg>