<svg width="257" height="320" fill="none" viewBox="0 0 257 320">
  <path
    d="M9.93 294.88.01 30.72a16.096 16.096 0 0 1 15.104-16.64L239.754.034a16.082 16.082 0 0 1 17.103 16.064V303.92a16.079 16.079 0 0 1-1.3 6.32 16.09 16.09 0 0 1-15.516 9.744l-214.75-9.648a16.097 16.097 0 0 1-10.7-4.74 16.057 16.057 0 0 1-4.66-10.716z"
    fill="#ff4785" />
  <path
    d="m222.09 1.137-30.912 1.92-1.504 36.271a2.404 2.404 0 0 0 1.282 2.223 2.402 2.402 0 0 0 2.558-.207l14.08-10.687 11.904 9.375a2.4 2.4 0 0 0 3.888-1.968zm-24.064 121.44c-5.648 4.4-47.824 7.392-47.824 1.136.896-23.889-9.792-24.929-15.744-24.929-5.632 0-15.136 1.697-15.136 14.497 0 13.04 13.888 20.4 30.192 29.04 23.152 12.272 51.2 27.135 51.2 64.511 0 35.84-29.12 55.616-66.24 55.616-38.32 0-71.808-15.504-68.032-69.248 1.488-6.304 50.208-4.8 50.208 0-.608 22.176 4.448 28.704 17.216 28.704 9.808 0 14.256-5.408 14.256-14.496 0-13.776-14.464-21.904-31.12-31.248-22.544-12.656-49.072-27.551-49.072-61.743 0-34.113 23.456-56.865 65.344-56.865 41.888 0 64.752 22.4 64.752 65.025z"
    fill="#fff"
    fill-rule="evenodd"
    clip-rule="evenodd" />
</svg>