<svg width="537" height="320" viewBox="0 0 537 320" fill="none">
  <path fill-rule="evenodd" clip-rule="evenodd"
    d="M268.282 0C196.735 0 152.03 35.5579 134.136 106.674C160.967 71.1158 192.267 57.7842 228.035 66.6684C248.443 71.7361 263.036 86.4555 279.175 102.752C305.48 129.289 335.928 160 402.418 160C473.955 160 518.67 124.442 536.554 53.3368C509.733 88.8947 478.433 102.226 442.665 93.3316C422.247 88.2639 407.654 73.5445 391.515 57.2585C365.21 30.7005 334.772 0 268.282 0ZM134.136 160C62.5996 160 17.8841 195.558 0 266.674C26.8314 231.116 58.1312 217.784 93.8888 226.668C114.307 231.736 128.9 246.455 145.039 262.752C171.344 289.289 201.782 320 268.282 320C339.819 320 384.534 284.453 402.418 213.337C375.587 248.895 344.287 262.226 308.519 253.342C288.111 248.264 273.518 233.544 257.379 217.258C231.074 190.721 200.626 160 134.136 160Z"
    fill="#06B6D4" />
</svg>