<svg width="360" height="360" fill="none" viewBox="0 0 360 360">
	<rect width="360" height="360" fill="#3178C6" rx="35" />
	<path fill="#fff" fill-rule="evenodd"
		d="M222.848 286.47v35.199c5.722 2.934 12.489 5.133 20.302 6.6 7.814 1.466 16.048 2.2 24.705 2.2 8.437 0 16.451-.807 24.044-2.42s14.251-4.272 19.973-7.975c5.722-3.703 10.252-8.543 13.59-14.52 3.338-5.976 5.007-13.364 5.007-22.164 0-6.38-.954-11.971-2.861-16.774a39.202 39.202 0 0 0-8.254-12.815c-3.594-3.74-7.904-7.095-12.929-10.065-5.026-2.97-10.693-5.775-17.002-8.414-4.622-1.907-8.766-3.758-12.435-5.555-3.668-1.797-6.786-3.63-9.353-5.5-2.568-1.87-4.549-3.85-5.942-5.94-1.394-2.09-2.092-4.455-2.092-7.095 0-2.419.624-4.601 1.872-6.545 1.247-1.943 3.007-3.611 5.281-5.004 2.275-1.393 5.062-2.475 8.363-3.245 3.302-.77 6.97-1.155 11.005-1.155 2.934 0 6.033.22 9.298.66a73.547 73.547 0 0 1 9.849 2.034 68.522 68.522 0 0 1 9.629 3.466c3.118 1.393 5.997 3.006 8.638 4.84v-32.89c-5.355-2.053-11.206-3.574-17.551-4.564-6.346-.99-13.628-1.485-21.844-1.485-8.363 0-16.286.898-23.769 2.695-7.483 1.796-14.067 4.601-19.753 8.414-5.685 3.814-10.178 8.672-13.479 14.575-3.302 5.903-4.952 12.961-4.952 21.174 0 10.487 3.026 19.433 9.078 26.84 6.052 7.406 15.24 13.676 27.566 18.809a373.485 373.485 0 0 1 13.535 5.83c4.181 1.907 7.795 3.887 10.838 5.94 3.045 2.053 5.447 4.289 7.209 6.71 1.76 2.419 2.641 5.169 2.641 8.249 0 2.274-.551 4.382-1.651 6.325-1.101 1.943-2.77 3.63-5.007 5.06-2.237 1.43-5.025 2.548-8.363 3.354-3.339.807-7.244 1.21-11.72 1.21-7.629 0-15.185-1.338-22.669-4.014-7.482-2.677-14.415-6.691-20.797-12.045Zm-59.175-86.725h45.155v-28.886H82.968v28.886h44.935v128.614h35.77V199.745Z"
		clip-rule="evenodd" />
</svg>