<svg width="360" height="361" fill="none" viewBox="0 0 360 361">
	<path fill="url(#vite-logo-gradient-1)"
		d="m358.809 53.677-169.11 302.398c-3.492 6.243-12.462 6.28-16.006.067L1.23 53.706c-3.861-6.77 1.928-14.972 9.6-13.6l169.292 30.26a9.19 9.19 0 0 0 3.265-.006l165.751-30.211c7.647-1.394 13.464 6.744 9.671 13.528Z" />
	<path fill="url(#vite-logo-gradient-2)"
		d="M260.764.089 135.618 24.61a4.595 4.595 0 0 0-3.704 4.238l-7.698 130.017c-.181 3.062 2.631 5.439 5.62 4.75l34.842-8.041c3.26-.752 6.206 2.119 5.536 5.398l-10.352 50.69c-.696 3.412 2.507 6.329 5.838 5.317l21.521-6.539c3.336-1.012 6.542 1.913 5.836 5.328l-16.451 79.623c-1.029 4.98 5.596 7.696 8.359 3.426l1.845-2.852L288.786 92.455c1.708-3.408-1.237-7.293-4.979-6.571l-35.865 6.922c-3.37.65-6.238-2.49-5.286-5.787l23.408-81.147c.952-3.303-1.926-6.444-5.3-5.783Z" />
	<defs>
		<linearGradient id="vite-logo-gradient-1" x1="-2.981" x2="207.489" y1="29.298" y2="315.134"
			gradientUnits="userSpaceOnUse">
			<stop stop-color="#41D1FF" />
			<stop offset="1" stop-color="#BD34FE" />
		</linearGradient>
		<linearGradient id="vite-logo-gradient-2" x1="170.405" x2="208.478" y1="6.746" y2="267.924"
			gradientUnits="userSpaceOnUse">
			<stop stop-color="#FFEA83" />
			<stop offset=".083" stop-color="#FFDD35" />
			<stop offset="1" stop-color="#FFA800" />
		</linearGradient>
	</defs>
</svg>