<svg width="360" height="360" viewBox="0 0 360 360" fill="none" xmlns="http://www.w3.org/2000/svg">
	<path d="M180 0L339.09 90V270L180 360L20.91 270V90L180 0Z" fill="white"/>
	<path d="M310.68 263.79L185.25 334.74V279.48L263.4 236.49L310.68 263.79ZM319.26 256.02V107.64L273.36 134.13V229.5L319.26 256.02ZM48.81 263.79L174.24 334.74V279.48L96.09 236.49L48.81 263.79V263.79ZM40.23 256.02V107.64L86.13 134.13V229.5L40.23 256.02V256.02ZM45.6 98.04L174.24 25.26V78.69L91.83 124.02L91.2 124.38L45.6 98.04V98.04ZM313.89 98.04L185.25 25.26V78.69L267.66 124.02L268.29 124.38L313.89 98.04V98.04Z" fill="#8ED6FB"/>
	<path d="M174.24 266.91L97.14 224.52V140.52L174.24 185.04V266.91ZM185.25 266.91L262.35 224.52V140.52L185.25 185.04V266.91ZM102.36 130.8L179.76 88.23L257.16 130.8L179.76 175.5L102.36 130.8V130.8Z" fill="#1C78C0"/>
</svg>
