<svg width="360" height="360" viewBox="0 0 360 360" fill="none" xmlns="http://www.w3.org/2000/svg">
	<path d="M180 10.8C213.84 10.8 246.78 20.88 274.68 39.78C301.86 58.14 323.28 84.06 336.06 114.3C358.38 167.04 352.44 227.34 320.4 274.68C302.04 301.86 276.12 323.28 245.88 336.06C193.14 358.38 132.84 352.44 85.5 320.4C58.32 302.04 36.9 276.12 24.12 245.88C1.8 193.14 7.74 132.84 39.78 85.5C58.14 58.32 84.06 36.9 114.3 24.12C135 15.3 157.5 10.8 180 10.8ZM180 0C80.64 0 0 80.64 0 180C0 279.36 80.64 360 180 360C279.36 360 360 279.36 360 180C360 80.64 279.36 0 180 0Z" fill="#32373c"/>
	<path d="M30.6 180.708C30.6 238.128 63.36 290.688 115.2 315.708L43.56 119.688C34.92 138.948 30.6 159.648 30.6 180.708ZM281.88 173.148C281.88 154.608 275.22 141.828 269.46 131.748C263.7 121.668 254.7 108.888 254.7 96.6482C254.7 84.4082 265.14 70.0082 279.9 70.0082H281.88C220.86 14.0282 126 18.1682 70.02 79.3682C64.62 85.3082 59.58 91.6082 55.26 98.2682H64.98C80.64 98.2682 104.94 96.2882 104.94 96.2882C113.04 95.7482 113.94 107.628 105.84 108.708C105.84 108.708 97.74 109.608 88.74 110.148L143.28 272.688L176.04 174.228L152.64 110.148C144.54 109.608 136.98 108.708 136.98 108.708C128.88 108.168 129.78 95.9282 137.88 96.2882C137.88 96.2882 162.72 98.2682 177.3 98.2682C191.88 98.2682 217.26 96.2882 217.26 96.2882C225.36 95.7482 226.26 107.628 218.16 108.708C218.16 108.708 210.06 109.608 201.06 110.148L255.24 271.428L270.72 222.468C277.56 201.048 281.7 185.928 281.7 172.968L281.88 173.148ZM183.06 193.668L138.06 324.528C168.3 333.348 200.52 332.628 230.22 322.188L229.14 320.208L183.06 193.668ZM312.12 108.708C312.84 113.748 313.2 118.968 313.2 124.188C313.2 139.488 310.32 156.588 301.86 177.828L255.96 310.308C326.16 269.448 351.18 179.988 312.12 108.708Z" fill="#32373c"/>
</svg>
