<svg xmlns="http://www.w3.org/2000/svg" width="825" height="200" fill="none" viewBox="0 0 825 200">
  <path fill="#00DC82" d="M167.687 196.394h109.925c3.494 0 6.925-.894 9.95-2.588a19.524 19.524 0 0 0 7.275-7.062 18.831 18.831 0 0 0 2.663-9.65c0-3.381-.925-6.713-2.669-9.644L221 43.419a19.596 19.596 0 0 0-7.281-7.063 20.364 20.364 0 0 0-19.888 0c-3.019 1.694-5.531 4.125-7.275 7.063l-18.875 31.737-36.912-62.062A19.607 19.607 0 0 0 123.5 6.03a20.375 20.375 0 0 0-19.888 0 19.598 19.598 0 0 0-7.28 7.063L4.455 167.45a18.845 18.845 0 0 0-.006 19.294 19.485 19.485 0 0 0 7.275 7.062 20.353 20.353 0 0 0 9.95 2.588h69c27.344 0 47.5-11.65 61.375-34.375l33.687-56.581 18.038-30.282 54.15 90.957h-72.188l-18.05 30.281ZM89.55 166.081l-48.156-.012L113.58 44.8l36.019 60.638-24.113 40.525c-9.218 14.75-19.687 20.118-35.937 20.118Z" />
  <path fill="#000" d="M379.062 194.575v-72.219c0-20.662-2.15-41.331-2.15-41.331s8.175 18.85 18.5 36.562l44.113 76.988h34.644V35.606h-32.482v72.219c0 20.663 2.15 41.563 2.15 41.563s-8.175-19.082-18.293-36.794l-44.325-76.988h-34.425v158.969h32.268ZM576.537 80.119V142.8c0 14.531-9.25 25.437-22.375 25.437-12.268 0-20.875-10-20.875-23.85V80.119h-29.912v71.312c0 26.113 15.925 44.963 40.237 44.963 14.85 0 26.9-6.813 32.925-17.713v15.894h30.125V80.125l-30.125-.006Zm117.725 54.956 36.369-54.956h-32.925l-19.794 30.206-19.8-30.206h-32.706l36.369 54.731-39.163 59.725h32.063l23.45-35.2 23.237 35.2h31.85l-38.95-59.5Zm69.994-54.956h-20.875v26.344h20.875v46.556c0 26.562 16.138 41.562 41.1 41.562h17.856V168h-13.768c-9.682 0-15.282-5.225-15.282-16.35v-45.194h29.05V80.112h-29.05v-33.83h-29.906v33.837Z" />
</svg>
